<svg id="msLogo" data-name="MS Logo" xmlns="http://www.w3.org/2000/svg" viewBox="0 0 485.71 509.35">
  <path d="m464.31,5.94c-13.19-7.73-29.68-7.89-43.02-.41-22.83,12.8-117.48,66.67-178.38,101.6C209.89,88.22,95.52,23.02,94.29,22.32c0,0-24.2-13.67-29.83-16.82-13.29-7.45-29.73-7.32-42.91.35C8.39,13.5.14,27.73.05,42.97c-.05,7.57-.02,59.13,0,118.83.04,79.56.08,178.58-.05,185.99-.35,19.7,8.96,35.91,26.21,45.66,59.39,33.54,122.38,69.28,192.56,109.25,7.74,4.41,15.89,6.64,24.23,6.64s16.68-2.29,24.48-6.81c16.08-9.33,123.43-70.54,181.11-103.42l14.19-8.09c14.14-8.06,22.93-23.19,22.93-39.47V43.28c0-15.3-8.2-29.61-21.4-37.34Z" style="fill: #d3163c; stroke-width: 0px;"/>
  <g>
    <path d="m407.01,376.01c-24.13,13.9-129.94,74.71-159.61,91.93-3.22,1.87-5.58,1.86-8.82.01-64.17-36.54-128.39-73-192.69-109.32-4.3-2.43-5.96-5.09-5.87-10.1.32-18.23.13-36.46.13-55.74,2.29,1.17,133.65,74.92,197.62,111.08,3.75,2.12,6.53,2.2,10.27,0,14.94-8.78,30.09-17.22,45.15-25.8,1.68-.96,3.31-2.02,5.56-3.39-1.96-1.28-3.34-2.29-4.83-3.13-54.59-30.75-109.14-61.55-163.85-92.08-5.12-2.85-6.85-5.92-6.77-11.75.35-27.1.16-85.51.16-88.89,7.22,4.09,35.67,20.89,43.9,25.38,3.56,1.94,4.69,4.3,4.56,8.17-.25,7.76.12,15.54-.13,23.3-.12,3.7,1.08,5.76,4.37,7.65,74.09,42.47,227.39,130.67,230.87,132.67Z" style="fill: #fff; stroke-width: 0px;"/>
    <path d="m96.02,69.39c-23.61-13.42-42.63-24.2-51.12-28.96-2.16-1.21-4.82.34-4.83,2.81-.15,24.99-.32,129.31-.4,183.34,0,2.66,1.44,5.09,3.78,6.36,12.89,6.98,47.06,26.02,52.32,28.93l.26-192.47Z" style="fill: #fff; stroke-width: 0px;"/>
    <path d="m440.85,40.46c-24.61,13.79-136.27,77.37-193.55,110.31-2.73,1.57-6.07,1.57-8.8,0-30.24-17.39-75.64-43.32-115.38-65.95v63.85l239.13,138.2c.34-1.41.56-1.92.57-2.42.03-19.51.14-39.02-.12-58.52-.03-1.92-2-4.51-3.79-5.59-10.8-6.54-50.46-29.34-60.12-34.94,30.68-17.62,60.63-34.81,91.41-52.49,0,3.29.04,112.31-.1,164.69-.01,3.9.97,6.21,4.56,8.07,7.2,3.74,40.73,23.38,51.03,29.32V43.3c0-2.48-2.67-4.06-4.84-2.84Z" style="fill: #fff; stroke-width: 0px;"/>
  </g>
</svg>