<?xml version="1.0" encoding="UTF-8"?>
<svg id="Layer_1" data-name="Layer 1" xmlns="http://www.w3.org/2000/svg" viewBox="0 0 470.71 494.35">
  <path d="m451.56,377.01c11.84-6.75,19.14-19.33,19.14-32.96V35.78c0-12.65-6.78-24.48-17.69-30.87-10.91-6.39-24.54-6.52-35.57-.34-24.02,13.46-123.61,70.17-182.04,103.7-27.18-15.6-152.3-86.92-152.3-86.92,0,0-24.18-13.66-29.81-16.81-10.99-6.16-24.58-6.05-35.47.29C6.94,11.16.13,22.92.05,35.52-.06,53.6.24,327.59,0,340.44c-.3,16.82,7.65,30.67,22.39,38.99,59.31,33.5,122.31,69.24,192.59,109.26,6.63,3.77,13.58,5.66,20.52,5.66s14.05-1.94,20.72-5.8c17.6-10.21,145.99-83.4,195.34-111.54Z" style="fill: #d3163c; stroke-width: 0px;"/>
  <g>
    <path d="m399.51,368.49c-24.13,13.9-129.94,74.71-159.61,91.93-3.22,1.87-5.58,1.86-8.82.01-64.17-36.54-128.39-73-192.69-109.32-4.3-2.43-5.96-5.09-5.87-10.1.32-18.23.13-36.46.13-55.74,2.29,1.17,133.65,74.92,197.62,111.08,3.75,2.12,6.53,2.2,10.27,0,14.94-8.78,30.09-17.22,45.15-25.8,1.68-.96,3.31-2.02,5.56-3.39-1.96-1.28-3.34-2.29-4.83-3.13-54.59-30.75-109.14-61.55-163.85-92.08-5.12-2.85-6.85-5.92-6.77-11.75.35-27.1.16-85.51.16-88.89,7.22,4.09,35.67,20.89,43.9,25.38,3.56,1.94,4.69,4.3,4.56,8.17-.25,7.76.12,15.54-.13,23.3-.12,3.7,1.08,5.76,4.37,7.65,74.09,42.47,227.39,130.67,230.87,132.67Z" style="stroke-width: 0px;"/>
    <path d="m88.52,61.88c-23.61-13.42-42.63-24.2-51.12-28.96-2.16-1.21-4.82.34-4.83,2.81-.15,24.99-.32,129.31-.4,183.34,0,2.66,1.44,5.09,3.78,6.36,12.89,6.98,47.06,26.02,52.32,28.93l.26-192.47Z" style="stroke-width: 0px;"/>
    <path d="m433.35,32.94c-24.61,13.79-136.27,77.37-193.55,110.31-2.73,1.57-6.07,1.57-8.8,0-30.24-17.39-75.64-43.32-115.38-65.95v63.85l239.13,138.2c.34-1.41.56-1.92.57-2.42.03-19.51.14-39.02-.12-58.52-.03-1.92-2-4.51-3.79-5.59-10.8-6.54-50.46-29.34-60.12-34.94,30.68-17.62,60.63-34.81,91.41-52.49,0,3.29.04,112.31-.1,164.69-.01,3.9.97,6.21,4.56,8.07,7.2,3.74,40.73,23.38,51.03,29.32V35.78c0-2.48-2.67-4.06-4.84-2.84Z" style="fill: #fff; stroke-width: 0px;"/>
  </g>
</svg>